<svg width="224" height="36" viewBox="0 0 224 36" fill="none" xmlns="http://www.w3.org/2000/svg">
<path d="M224 34.0368V32.6311C222.293 32.4805 221.139 31.8781 219.632 29.5688L208.739 12.8014L217.022 4.41775C218.93 2.45988 220.737 1.65666 222.594 1.40565V0H212.654V1.40565C213.96 1.55625 215.064 1.90766 215.064 3.11251C215.064 4.26714 213.859 5.72299 213.006 6.57642L201.66 18.2734V4.86957C201.66 1.90766 202.915 1.50605 205.074 1.40565V0.0502019H193.979V1.40565C195.987 1.50605 197.493 1.85746 197.493 5.02017V28.1129C197.493 31.9283 196.238 32.5307 193.979 32.6311V33.9865H205.827V32.6813C203.618 32.6311 201.71 32.3801 201.71 29.1672V20.2815L205.827 15.9139L215.114 30.121C215.164 30.2214 215.516 30.7234 215.516 31.2757C215.516 32.6311 213.106 32.6813 211.901 32.7315V34.0368H224ZM192.875 8.63469L194.13 8.23308L191.168 0.100404H167.674V1.45585C169.581 1.50605 171.439 1.80726 171.439 4.46795V28.6652C171.439 32.2295 170.083 32.6813 167.674 32.7315V34.0368H191.72L194.682 25.4021L193.528 25.0004C187.654 32.2797 185.194 32.7315 179.12 32.7315C176.861 32.7315 175.606 32.4303 175.606 29.9704V17.2192H177.865C184.692 17.2192 184.993 21.3859 185.144 23.143H186.449V9.99014H185.144C184.692 13.1026 183.788 15.8637 177.865 15.8637H175.606V4.51815C175.606 1.80726 176.559 1.35545 179.823 1.35545C186.399 1.35545 188.608 3.16271 192.875 8.63469ZM166.519 8.63469L167.774 8.23308L164.812 0.100404H141.318V1.45585C143.225 1.50605 145.083 1.80726 145.083 4.46795V28.6652C145.083 32.2295 143.727 32.6813 141.318 32.7315V34.0368H165.364L168.326 25.4021L167.172 25.0004C161.298 32.2797 158.838 32.7315 152.764 32.7315C150.505 32.7315 149.25 32.4303 149.25 29.9704V17.2192H151.509C158.286 17.2192 158.637 21.3859 158.788 23.143H160.093V9.99014H158.788C158.286 13.1026 157.433 15.8637 151.509 15.8637H149.25V4.51815C149.25 1.80726 150.204 1.35545 153.467 1.35545C160.043 1.35545 162.252 3.16271 166.519 8.63469ZM133.235 3.81533C133.235 5.02017 132.934 6.17481 132.733 6.92783L127.312 26.7575H127.211L120.836 4.26714C120.785 4.06634 120.685 3.81533 120.685 3.56432C120.685 1.85746 122.593 1.50605 123.998 1.45585V0.100404H112.402V1.45585C115.113 1.70686 116.167 2.8615 117.171 5.8736L111.197 26.7073H111.096L104.871 4.36755C104.821 4.21694 104.671 3.81533 104.671 3.41371C104.671 1.50605 106.93 1.45585 108.636 1.40565V0.100404H96.7889V1.50605C98.0941 1.65666 100.102 2.35948 100.905 5.27118L109.239 35.0408H110.594L117.974 8.9359H118.074L125.504 35.0408H126.86L134.189 8.13268C135.595 2.9619 136.749 1.75706 139.209 1.50605V0.150605H130.324V1.50605C131.629 1.50605 133.235 1.85746 133.235 3.81533ZM87.4012 8.63469L88.6562 8.23308L85.6943 0.100404H62.1999V1.45585C64.1076 1.50605 65.965 1.80726 65.965 4.46795V28.6652C65.965 32.2295 64.6096 32.6813 62.1999 32.7315V34.0368H86.2465L89.2084 25.4021L88.0538 25.0004C82.1802 32.2797 79.7203 32.7315 73.6459 32.7315C71.3868 32.7315 70.1318 32.4303 70.1318 29.9704V17.2192H72.3909C79.2183 17.2192 79.5195 21.3859 79.6701 23.143H80.9753V9.99014H79.6701C79.2183 13.1026 78.3147 15.8637 72.3909 15.8637H70.1318V4.51815C70.1318 1.80726 71.0856 1.35545 74.3487 1.35545C80.9251 1.35545 83.0838 3.16271 87.4012 8.63469ZM52.4608 4.71896V15.7633H38.4545V4.51815C38.4545 1.65666 40.563 1.40565 42.6212 1.35545V0.0502019H30.8238V1.35545H31.1251C33.2837 1.35545 34.2878 2.51008 34.2878 4.51815V29.5688C34.2878 32.1291 32.4303 32.5809 30.874 32.6813V34.0368H42.6714V32.7315C40.8642 32.6311 38.5047 32.5307 38.5047 29.9202V17.42H52.511V29.5688C52.511 32.6311 49.9507 32.6813 48.1936 32.6813V33.9865H60.242V32.6311C58.5352 32.5307 56.6777 32.2295 56.6777 29.5186V4.51815C56.6777 1.90766 58.4348 1.50605 60.242 1.40565V0.0502019H48.1936V1.35545C50.1013 1.35545 52.4608 1.35545 52.4608 4.71896ZM28.6652 0.0502019L31.5769 8.23308L30.4222 8.7351C26.5567 4.26715 23.896 1.35545 20.1309 1.35545C18.6248 1.35545 17.8718 2.05827 17.8718 3.46392V29.7696C17.8718 32.7315 20.5325 32.6813 23.0426 32.6311V33.9363H8.43389V32.6311C10.7432 32.6813 13.7051 32.7817 13.7051 29.2676V3.36351C13.7051 1.45585 11.6468 1.40565 11.3456 1.40565C7.78126 1.40565 4.66876 4.46795 1.20484 8.7853L0 8.28328L2.9117 0.100404H28.6652V0.0502019Z" fill="#E70C26"/>
</svg>
